<?xml version="1.0" encoding="UTF-8"?>
<svg width="228px" height="173px" viewBox="0 0 228 173" version="1.1" xmlns="http://www.w3.org/2000/svg" xmlns:xlink="http://www.w3.org/1999/xlink">
    <title>Group 2</title>
    <g id="Page-2" stroke="none" stroke-width="1" fill="none" fill-rule="evenodd" stroke-linecap="square">
        <g id="Group-2" transform="translate(2.000000, 1.423591)" stroke="#FFFFFF">
            <line x1="74.6666667" y1="38.5288478" x2="112" y2="169.195514" id="Line-11" stroke-width="2"></line>
            <line x1="112" y1="38.5288478" x2="149.333333" y2="169.195514" id="Line-11" stroke-width="2" transform="translate(130.666667, 103.862181) scale(-1, 1) translate(-130.666667, -103.862181) "></line>
            <line x1="112" y1="4.30662557" x2="112" y2="37.4918108" id="Line-10"></line>
            <line x1="112" y1="39.5658848" x2="112" y2="169.195514" id="Line-10"></line>
            <line x1="198.074074" y1="39.5658848" x2="113.037037" y2="166.084403" id="Line-10"></line>
            <line x1="110.962963" y1="39.5658848" x2="25.9259259" y2="166.084403" id="Line-10" transform="translate(68.444444, 102.825144) scale(-1, 1) translate(-68.444444, -102.825144) "></line>
            <line x1="35.2592593" y1="4.30662557" x2="25.9259259" y2="37.4918108" id="Line-10"></line>
            <line x1="189.777778" y1="2.2325515" x2="198.074074" y2="37.4918108" id="Line-10"></line>
            <polyline id="Line-9" stroke-width="2" points="37.3333333 3.26958853 74.6666667 36.4547737 112 3.26958853"></polyline>
            <polyline id="Line-9" stroke-width="2" points="112 3.26958853 149.333333 36.4547737 186.666667 3.26958853"></polyline>
            <line x1="2.07407407" y1="38.5288478" x2="221.925926" y2="38.5288478" id="Line-8" stroke-width="2"></line>
            <polyline id="Line-7" stroke-width="2" transform="translate(168.000000, 85.037037) scale(-1, 1) translate(-168.000000, -85.037037) " points="224 0 147.489836 0 112 38.5288478 224 170.074074"></polyline>
            <polyline id="Line-7" stroke-width="2" points="112 0 35.4898361 0 0 38.5288478 112 170.074074"></polyline>
        </g>
    </g>
</svg>