<?xml version="1.0" encoding="UTF-8"?>
<svg width="2172px" height="1099px" viewBox="0 0 2172 1099" version="1.1" xmlns="http://www.w3.org/2000/svg" xmlns:xlink="http://www.w3.org/1999/xlink">
    <title>Group</title>
    <g id="Page-1" stroke="none" stroke-width="1" fill="none" fill-rule="evenodd">
        <g id="HP-Leny" transform="translate(1.000000, 1.000000)" stroke="#FFFFFF" stroke-width="0.25">
            <g id="Group">
                <path d="M0,1097.13 C0,1097.13 219.18,576.93 361.18,764.65 C503.18,952.37 569.52,959.16 657.52,875.51 C745.52,791.86 926.09,353.04 1208.52,675.34 C1490.95,997.64 2079.12,85 2079.12,85" id="Path"></path>
                <path d="M37,1067.13 C37,1067.13 256.18,546.93 398.18,734.65 C540.18,922.37 606.52,929.16 694.52,845.51 C782.52,761.86 963.09,323.04 1245.52,645.34 C1527.95,967.64 2116.12,55 2116.12,55" id="Path"></path>
                <path d="M45,1097.13 C45,1097.13 264.18,576.93 406.18,764.65 C548.18,952.37 614.52,959.16 702.52,875.51 C790.52,791.86 971.09,353.04 1253.52,675.34 C1535.95,997.64 2124.12,85 2124.12,85" id="Path"></path>
                <path d="M69,1045.13 C69,1045.13 288.18,524.93 430.18,712.65 C572.18,900.37 638.52,907.16 726.52,823.51 C814.52,739.86 995.09,301.04 1277.52,623.34 C1559.95,945.64 2148.12,33 2148.12,33" id="Path"></path>
                <path d="M91,1012.13 C91,1012.13 310.18,491.93 452.18,679.65 C594.18,867.37 660.52,874.16 748.52,790.51 C836.52,706.86 1017.09,268.04 1299.52,590.34 C1581.95,912.64 2170.12,0 2170.12,0" id="Path"></path>
            </g>
        </g>
    </g>
</svg>