<?xml version="1.0" encoding="utf-8"?>
<!-- Generator: Adobe Illustrator 26.0.3, SVG Export Plug-In . SVG Version: 6.00 Build 0)  -->
<svg version="1.1" id="Calque_1" xmlns="http://www.w3.org/2000/svg" xmlns:xlink="http://www.w3.org/1999/xlink" x="0px" y="0px"
	 viewBox="0 0 841.89 595.28" style="enable-background:new 0 0 841.89 595.28;" xml:space="preserve">
<style type="text/css">
	.st0{fill:none;stroke:#000000;stroke-miterlimit:10;}
	.st1{fill:none;stroke:#000000;stroke-width:2;stroke-miterlimit:10;}
	.st2{fill:none;stroke:#000000;stroke-width:0.5;stroke-miterlimit:10;}
	.st3{fill:none;stroke:#000000;stroke-width:0.25;stroke-miterlimit:10;}
	.st4{fill:none;stroke:#000000;stroke-width:3;stroke-miterlimit:10;}
</style>
<g>
	<circle class="st0" cx="476.93" cy="275.73" r="122.04"/>
	<circle class="st1" cx="500.78" cy="289.12" r="122.04"/>
	<circle class="st2" cx="482.95" cy="289.12" r="122.04"/>
	<circle class="st2" cx="505.69" cy="306.38" r="122.04"/>
	<circle class="st3" cx="505.69" cy="284.55" r="122.04"/>
	<circle class="st3" cx="493.17" cy="296.86" r="105.79"/>
	<circle class="st4" cx="469.37" cy="306.38" r="122.04"/>
</g>
<path d="M278.08,212.79V335.6h-24.42V212.79H278.08z"/>
<path d="M314.88,314.27c3.67,3.56,8.94,5.33,15.82,5.33c4.93,0,9.17-1.23,12.73-3.7c3.55-2.46,5.73-5.07,6.54-7.83h21.5
	c-3.44,10.66-8.72,18.29-15.82,22.88c-7.11,4.59-15.71,6.88-25.8,6.88c-7,0-13.3-1.12-18.92-3.35c-5.62-2.24-10.38-5.42-14.28-9.55
	c-3.9-4.13-6.91-9.06-9.03-14.79c-2.12-5.73-3.18-12.04-3.18-18.92c0-6.65,1.09-12.84,3.27-18.58c2.18-5.73,5.27-10.69,9.29-14.88
	c4.01-4.18,8.8-7.48,14.36-9.89c5.56-2.41,11.72-3.61,18.49-3.61c7.57,0,14.16,1.46,19.78,4.39c5.62,2.92,10.23,6.85,13.85,11.78
	c3.61,4.93,6.22,10.55,7.83,16.86c1.6,6.31,2.18,12.9,1.72,19.78h-64.16C309.21,304.98,311.21,310.71,314.88,314.27z M342.49,267.48
	c-2.92-3.21-7.37-4.82-13.33-4.82c-3.9,0-7.14,0.66-9.72,1.98c-2.58,1.32-4.64,2.95-6.19,4.9c-1.55,1.95-2.64,4.02-3.27,6.19
	c-0.63,2.18-1,4.13-1.12,5.85h39.73C347.45,275.4,345.41,270.7,342.49,267.48z"/>
<path d="M402.08,246.67v12.38h0.52c3.1-5.16,7.11-8.91,12.04-11.27c4.93-2.35,9.98-3.53,15.14-3.53c6.54,0,11.89,0.89,16.08,2.67
	c4.18,1.78,7.48,4.24,9.89,7.4c2.41,3.16,4.1,7,5.07,11.52c0.97,4.53,1.46,9.55,1.46,15.05v54.7h-24.42v-50.22
	c0-7.34-1.15-12.81-3.44-16.43c-2.29-3.61-6.36-5.42-12.21-5.42c-6.65,0-11.47,1.98-14.45,5.93c-2.98,3.96-4.47,10.46-4.47,19.52
	v46.61h-24.42v-88.92H402.08z"/>
<path d="M505.11,362.08c-4.7,3.1-11.24,4.64-19.61,4.64c-2.52,0-5.02-0.09-7.48-0.26c-2.47-0.17-4.96-0.37-7.48-0.6v-20.12
	c2.29,0.23,4.64,0.46,7.05,0.69c2.41,0.23,4.82,0.29,7.22,0.17c3.21-0.34,5.59-1.61,7.14-3.78c1.55-2.18,2.32-4.59,2.32-7.22
	c0-1.95-0.34-3.78-1.03-5.5l-31.13-83.42h25.97l20.12,60.89h0.34l19.44-60.89h25.28l-37.15,99.93
	C513.48,353.83,509.81,358.99,505.11,362.08z"/>
<g>
	<path d="M573.73,309.11l-9.97,26.49h-26.99l9.78-26.49H573.73z"/>
</g>
</svg>
